<svg xmlns="http://www.w3.org/2000/svg" xmlns:xlink="http://www.w3.org/1999/xlink" width="1920" zoomAndPan="magnify" viewBox="0 0 1440 809.999993" height="1080" preserveAspectRatio="xMidYMid meet" version="1.0"><path fill="#e9e5e7" d="M 1102.085938 292.324219 C 1061.835938 181.570312 901.382812 133.175781 781.453125 194.613281 C 725.726562 45.144531 559.074219 51.042969 509.769531 204.164062 C 405.914062 154.5625 277.40625 212.371094 259.160156 319.21875 C 137.472656 319.644531 41.011719 389.421875 41.222656 473.316406 C 41.472656 567.285156 165.054688 637.226562 296.769531 617.808594 C 358.480469 738.289062 605.660156 764.710938 723.804688 662.414062 C 814.171875 764.398438 1032.695312 738.039062 1070.167969 619.667969 C 1213.203125 665.65625 1396.265625 598.53125 1396.265625 460.097656 C 1396.265625 332.898438 1240.972656 264.667969 1102.085938 292.324219 " fill-opacity="1" fill-rule="nonzero"/><path fill="#e9e5e7" d="M 1102.085938 292.324219 C 1061.835938 181.570312 901.382812 133.175781 781.453125 194.613281 C 725.726562 45.144531 559.074219 51.042969 509.769531 204.164062 C 405.914062 154.5625 277.40625 212.371094 259.160156 319.21875 C 137.472656 319.644531 41.011719 389.421875 41.222656 473.316406 C 41.472656 567.285156 165.054688 637.226562 296.769531 617.808594 C 358.480469 738.289062 605.660156 764.710938 723.804688 662.414062 C 814.171875 764.398438 1032.695312 738.039062 1070.167969 619.667969 C 1213.203125 665.65625 1396.265625 598.53125 1396.265625 460.097656 C 1396.265625 332.898438 1240.972656 264.667969 1102.085938 292.324219 " fill-opacity="1" fill-rule="nonzero"/><path fill="#eeebeb" d="M 258.113281 319.246094 C 250.808594 332.875 245.570312 347.738281 242.816406 363.746094 C 156.738281 364.007812 82.882812 397.214844 44.765625 445.382812 C 63.09375 374.722656 150.742188 319.957031 258.113281 319.246094 " fill-opacity="1" fill-rule="nonzero"/><path fill="#eeebeb" d="M 1390.152344 417.976562 C 1336.847656 347.847656 1221.691406 315.628906 1115.714844 336.390625 C 1074.03125 223.71875 907.890625 174.511719 783.695312 237.007812 C 725.949219 84.972656 553.375 90.980469 502.324219 246.6875 C 411.710938 204.191406 302.878906 239.277344 259.6875 316.4375 C 279.6875 211.324219 406.847656 154.988281 509.796875 204.140625 C 559.097656 51.015625 725.738281 45.132812 781.476562 194.625 C 901.394531 133.203125 1061.8125 181.597656 1102.101562 292.324219 C 1224.773438 267.933594 1360.203125 318.273438 1390.152344 417.976562 " fill-opacity="1" fill-rule="nonzero"/><path fill="#e9e5e7" d="M 259.6875 316.4375 C 259.460938 317.363281 259.300781 318.273438 259.136719 319.246094 L 258.113281 319.246094 C 258.601562 318.273438 259.136719 317.363281 259.6875 316.4375 " fill-opacity="1" fill-rule="nonzero"/><path fill="#ede9eb" d="M 1070.140625 619.644531 C 1032.882812 737.714844 814.445312 764.671875 723.78125 662.414062 C 605.496094 764.875 358.304688 738.078125 296.769531 617.796875 C 150.828125 639.445312 15.226562 550.789062 45.414062 443.066406 C 68.121094 522.21875 180.019531 575.640625 296.769531 558.332031 C 328.890625 621.101562 420.363281 666.351562 528.226562 666.351562 C 608.304688 666.351562 680.488281 595.800781 724.929688 557.308594 C 758.71875 595.414062 816.953125 666.351562 884.585938 666.351562 C 975.148438 666.351562 1050.949219 620.988281 1070.140625 560.164062 C 1202.128906 602.621094 1369.054688 548.804688 1393.296875 430.359375 C 1424.507812 582.957031 1227.914062 670.394531 1070.140625 619.644531 " fill-opacity="1" fill-rule="nonzero"/><path fill="#ede9eb" d="M 1274.152344 557.65625 C 1181.753906 636.265625 1056.25 604.640625 1011.847656 492.292969 C 1081.039062 558.953125 1181.765625 584.054688 1274.152344 557.65625 " fill-opacity="1" fill-rule="nonzero"/><path fill="#ede9eb" d="M 389.789062 517.957031 C 323.566406 619.59375 194.246094 624.953125 119.730469 529.875 C 205.019531 574.105469 308.726562 569.542969 389.789062 517.957031 " fill-opacity="1" fill-rule="nonzero"/><path fill="#ede9eb" d="M 864.109375 506.785156 C 797.875 608.433594 668.566406 613.796875 594.039062 518.714844 C 679.328125 562.945312 783.035156 558.367188 864.109375 506.785156 " fill-opacity="1" fill-rule="nonzero"/><path fill="#eeebeb" d="M 424.640625 411.617188 C 490.878906 309.96875 620.199219 304.605469 694.714844 399.683594 C 609.425781 355.457031 505.71875 360.03125 424.640625 411.617188 " fill-opacity="1" fill-rule="nonzero"/><path fill="#eeebeb" d="M 1053.621094 371.679688 C 1119.855469 270.027344 1249.175781 264.667969 1323.691406 359.746094 C 1238.402344 315.515625 1134.695312 320.09375 1053.621094 371.679688 " fill-opacity="1" fill-rule="nonzero"/><path fill="#eeebeb" d="M 753.496094 270.289062 C 812.027344 164.015625 940.585938 149.101562 1021.933594 238.40625 C 933.613281 200.613281 830.53125 212.84375 753.496094 270.289062 " fill-opacity="1" fill-rule="nonzero"/><path fill="#eeebeb" d="M 273.238281 279.40625 C 338.480469 177.121094 467.734375 170.484375 543.1875 264.839844 C 457.460938 221.449219 353.804688 227.035156 273.238281 279.40625 " fill-opacity="1" fill-rule="nonzero"/></svg>