<svg xmlns="http://www.w3.org/2000/svg" xmlns:xlink="http://www.w3.org/1999/xlink" width="1920" zoomAndPan="magnify" viewBox="0 0 1440 809.999993" height="1080" preserveAspectRatio="xMidYMid meet" version="1.0"><path fill="#e9e5e7" d="M 1113.726562 288.890625 C 1072.25 174.761719 906.90625 124.894531 783.320312 188.203125 C 725.898438 34.179688 554.167969 40.257812 503.363281 198.046875 C 396.34375 146.929688 263.917969 206.5 245.121094 316.605469 C 119.722656 317.042969 20.324219 388.945312 20.539062 475.394531 C 20.796875 572.226562 148.144531 644.300781 283.871094 624.292969 C 347.464844 748.441406 602.171875 775.667969 723.917969 670.253906 C 817.039062 775.347656 1042.21875 748.183594 1080.832031 626.207031 C 1228.226562 673.59375 1416.863281 604.429688 1416.863281 461.777344 C 1416.863281 330.699219 1256.839844 260.390625 1113.726562 288.890625 " fill-opacity="1" fill-rule="nonzero"/><path fill="#e9e5e7" d="M 1113.726562 288.890625 C 1072.25 174.761719 906.90625 124.894531 783.320312 188.203125 C 725.898438 34.179688 554.167969 40.257812 503.363281 198.046875 C 396.34375 146.929688 263.917969 206.5 245.121094 316.605469 C 119.722656 317.042969 20.324219 388.945312 20.539062 475.394531 C 20.796875 572.226562 148.144531 644.300781 283.871094 624.292969 C 347.464844 748.441406 602.171875 775.667969 723.917969 670.253906 C 817.039062 775.347656 1042.21875 748.183594 1080.832031 626.207031 C 1228.226562 673.59375 1416.863281 604.429688 1416.863281 461.777344 C 1416.863281 330.699219 1256.839844 260.390625 1113.726562 288.890625 " fill-opacity="1" fill-rule="nonzero"/><path fill="#eeebeb" d="M 244.039062 316.632812 C 236.511719 330.675781 231.113281 345.992188 228.273438 362.488281 C 139.574219 362.761719 63.46875 396.976562 24.191406 446.613281 C 43.078125 373.796875 133.394531 317.363281 244.039062 316.632812 " fill-opacity="1" fill-rule="nonzero"/><path fill="#eeebeb" d="M 1410.570312 418.371094 C 1355.636719 346.105469 1236.976562 312.90625 1127.769531 334.296875 C 1084.816406 218.191406 913.613281 167.492188 785.632812 231.890625 C 726.128906 75.21875 548.296875 81.414062 495.691406 241.863281 C 402.316406 198.070312 290.167969 234.230469 245.660156 313.738281 C 266.269531 205.421875 397.304688 147.367188 503.386719 198.019531 C 554.195312 40.230469 725.910156 34.167969 783.347656 188.214844 C 906.917969 124.921875 1072.222656 174.789062 1113.738281 288.890625 C 1240.148438 263.757812 1379.703125 315.628906 1410.570312 418.371094 " fill-opacity="1" fill-rule="nonzero"/><path fill="#e9e5e7" d="M 245.660156 313.738281 C 245.429688 314.691406 245.261719 315.628906 245.09375 316.632812 L 244.039062 316.632812 C 244.542969 315.628906 245.09375 314.691406 245.660156 313.738281 " fill-opacity="1" fill-rule="nonzero"/><path fill="#dad3d6" d="M 1080.804688 626.179688 C 1042.414062 747.851562 817.320312 775.628906 723.894531 670.253906 C 602.007812 775.835938 347.285156 748.222656 283.871094 624.28125 C 133.484375 646.585938 -6.25 555.226562 24.859375 444.222656 C 48.257812 525.789062 163.566406 580.835938 283.871094 563.003906 C 316.972656 627.683594 411.234375 674.316406 522.378906 674.316406 C 604.898438 674.316406 679.28125 601.613281 725.074219 561.949219 C 759.898438 601.214844 819.902344 674.316406 889.597656 674.316406 C 982.921875 674.316406 1061.03125 627.570312 1080.804688 564.890625 C 1216.816406 608.640625 1388.828125 553.183594 1413.808594 431.128906 C 1445.96875 588.378906 1243.386719 678.476562 1080.804688 626.179688 " fill-opacity="1" fill-rule="nonzero"/><path fill="#dad3d6" d="M 1291.03125 562.308594 C 1195.820312 643.308594 1066.492188 610.722656 1020.738281 494.953125 C 1092.035156 563.644531 1195.832031 589.511719 1291.03125 562.308594 " fill-opacity="1" fill-rule="nonzero"/><path fill="#dad3d6" d="M 379.726562 521.394531 C 311.484375 626.128906 178.226562 631.65625 101.441406 533.679688 C 189.328125 579.257812 296.195312 574.554688 379.726562 521.394531 " fill-opacity="1" fill-rule="nonzero"/><path fill="#dad3d6" d="M 868.5 509.882812 C 800.242188 614.628906 666.996094 620.15625 590.199219 522.179688 C 678.085938 567.757812 784.953125 563.039062 868.5 509.882812 " fill-opacity="1" fill-rule="nonzero"/><path fill="#eeebeb" d="M 415.640625 411.816406 C 483.894531 307.070312 617.15625 301.546875 693.941406 399.519531 C 606.054688 353.945312 499.1875 358.660156 415.640625 411.816406 " fill-opacity="1" fill-rule="nonzero"/><path fill="#eeebeb" d="M 1063.78125 370.660156 C 1132.035156 265.914062 1265.296875 260.390625 1342.082031 358.367188 C 1254.195312 312.789062 1147.328125 317.503906 1063.78125 370.660156 " fill-opacity="1" fill-rule="nonzero"/><path fill="#eeebeb" d="M 754.511719 266.183594 C 814.828125 156.671875 947.304688 141.304688 1031.132812 233.328125 C 940.121094 194.382812 833.894531 206.988281 754.511719 266.183594 " fill-opacity="1" fill-rule="nonzero"/><path fill="#eeebeb" d="M 259.625 275.578125 C 326.851562 170.175781 460.046875 163.339844 537.796875 260.570312 C 449.460938 215.855469 342.644531 221.609375 259.625 275.578125 " fill-opacity="1" fill-rule="nonzero"/></svg>