<svg xmlns="http://www.w3.org/2000/svg" xmlns:xlink="http://www.w3.org/1999/xlink" width="300" zoomAndPan="magnify" viewBox="0 0 224.87999 225" height="300" preserveAspectRatio="xMidYMid meet" version="1.0"><defs><clipPath id="54e00aabab"><path d="M 124 90 L 218 90 L 218 224.9375 L 124 224.9375 Z M 124 90 " clip-rule="nonzero"/></clipPath><clipPath id="01c694f7c8"><path d="M 122 106 L 195 106 L 195 224.9375 L 122 224.9375 Z M 122 106 " clip-rule="nonzero"/></clipPath><clipPath id="eaa9aaebc9"><path d="M 8 67 L 85 67 L 85 224.9375 L 8 224.9375 Z M 8 67 " clip-rule="nonzero"/></clipPath><clipPath id="f2748e5f5c"><path d="M 29 144 L 71 144 L 71 224.9375 L 29 224.9375 Z M 29 144 " clip-rule="nonzero"/></clipPath><clipPath id="d965686225"><path d="M 7 11.578125 L 218 11.578125 L 218 224.9375 L 7 224.9375 Z M 7 11.578125 " clip-rule="nonzero"/></clipPath></defs><path fill="#fffdec" d="M 26.273438 50.882812 C 30.25 51.121094 32.457031 52.699219 33.09375 55.453125 L 16.628906 81.65625 C 12.109375 82.050781 9.132812 80.699219 8.785156 76.371094 Z M 26.273438 50.882812 " fill-opacity="1" fill-rule="evenodd"/><path fill="#fffdec" d="M 135.859375 95.507812 L 137.726562 97.6875 L 171.785156 85.527344 C 171.785156 86.902344 172.351562 88.105469 173.253906 89.207031 C 175.101562 89.570312 176.480469 89.277344 176.988281 87.769531 C 175.878906 86.628906 175.101562 85.378906 175.058594 83.867188 L 204.640625 73.738281 C 204.476562 75.019531 204.953125 76.101562 205.828125 77.058594 C 212.308594 74.519531 210.085938 71.089844 205.886719 69.898438 C 182.15625 77.15625 158.851562 85.816406 135.859375 95.507812 Z M 135.859375 95.507812 " fill-opacity="1" fill-rule="evenodd"/><path fill="#fffdec" d="M 112.25 104.710938 L 112.945312 106.246094 L 124.191406 102.914062 L 123.664062 98.71875 Z M 112.25 104.710938 " fill-opacity="1" fill-rule="evenodd"/><path fill="#192732" d="M 13.632812 76.933594 L 29.976562 53.207031 L 32.980469 55.21875 L 17.457031 78.867188 Z M 13.632812 76.933594 " fill-opacity="1" fill-rule="evenodd"/><path fill="#192732" d="M 137.183594 97.511719 L 171.101562 84.964844 C 171.375 86.433594 171.957031 87.9375 173.667969 89.363281 L 141.875 101.476562 C 139.421875 100.429688 138.429688 99.082031 137.183594 97.511719 Z M 137.183594 97.511719 " fill-opacity="1" fill-rule="evenodd"/><path fill="#192732" d="M 175.257812 83.484375 L 204.019531 73.226562 C 203.660156 72.042969 203.59375 71.007812 203.984375 69.933594 L 206.398438 69.71875 C 205.804688 72.03125 206.4375 74.171875 208.066406 76.171875 L 177.328125 87.722656 Z M 175.257812 83.484375 " fill-opacity="1" fill-rule="evenodd"/><path fill="#192732" d="M 111.308594 105.386719 L 109.34375 106.660156 L 112.410156 107.46875 L 126.148438 105.425781 L 123.902344 102.15625 L 112.648438 106.027344 Z M 111.308594 105.386719 " fill-opacity="1" fill-rule="evenodd"/><path fill="#fffdec" d="M 50.539062 13.066406 L 50.300781 16.660156 L 44.578125 16.589844 L 44.253906 67.195312 C 46.105469 66.480469 47.964844 66.6875 50.03125 66.78125 C 51.488281 68.015625 52.515625 69.46875 53.019531 71.183594 C 55.882812 70.902344 58.320312 72.054688 60.484375 74.125 L 57.980469 136.644531 C 59.960938 136.699219 62.5625 134.089844 64.710938 131.066406 C 67.714844 126.550781 71.207031 122.777344 75.820312 120.710938 C 80.847656 119.464844 84.027344 120.785156 85.226562 124.855469 L 71.71875 144.46875 C 66.339844 155.882812 60.71875 163.5 53.011719 167.191406 C 49.90625 178.265625 47.96875 188.78125 46.6875 199.957031 L 177.917969 200.289062 C 175.832031 182.324219 170.648438 162.359375 165.226562 142.9375 C 155.160156 139.710938 147.75 126.597656 144.765625 123.035156 C 141.683594 126.171875 139.039062 126.714844 136.421875 124.257812 C 133.476562 125.609375 131.109375 124.847656 128.980469 123.609375 C 128.882812 120.691406 129.308594 116.695312 129.660156 113.976562 C 123.910156 117.097656 120.125 114.375 122.6875 106.566406 L 109.78125 108.367188 C 107.648438 107.699219 108.417969 106.773438 108.789062 105.765625 L 122.300781 98.910156 C 120.046875 97.941406 120.304688 95.824219 120.128906 93.847656 C 126.320312 86.296875 133.359375 80.414062 140.429688 74.589844 C 142.769531 72.734375 144.917969 72.132812 146.882812 72.742188 L 166.386719 83.558594 L 182.277344 77.042969 L 181.65625 13.484375 Z M 50.539062 13.066406 " fill-opacity="1" fill-rule="evenodd"/><path fill="#f5ead9" d="M 123.066406 98.183594 C 120.082031 97.15625 119.742188 95.367188 121.089844 93.097656 C 126.988281 87.527344 132.730469 81.980469 139.136719 77.347656 C 141.398438 74.261719 144.207031 72.71875 147.457031 73.949219 L 164.96875 83.265625 L 155.085938 87.585938 L 144.308594 84.03125 L 130.019531 93.890625 Z M 123.066406 98.183594 " fill-opacity="1" fill-rule="evenodd"/><path fill="#f38c68" d="M 142.195312 101.757812 C 146.332031 106.050781 151.039062 108.375 156 109.816406 C 157.160156 103.71875 161.664062 98.226562 165.515625 93.636719 Z M 142.195312 101.757812 " fill-opacity="1" fill-rule="evenodd"/><g clip-path="url(#54e00aabab)"><path fill="#f5ead9" d="M 131.101562 110.566406 C 128.710938 108.105469 126.761719 105.40625 124.996094 102.609375 C 122.460938 97.371094 128.417969 92.070312 133.132812 95.066406 C 140.410156 100.78125 147.855469 106.277344 156.53125 110.164062 C 157.304688 103.996094 160.949219 98.390625 165.671875 93.613281 C 172.113281 90.234375 175.648438 89.339844 176.679688 92.765625 C 191.007812 136.160156 204.144531 181.1875 217.03125 224.628906 L 191.011719 224.089844 L 171.273438 141.308594 C 162.445312 137.292969 155.753906 131.011719 149.84375 123.902344 C 143.875 119.050781 137.777344 114.386719 131.101562 110.566406 Z M 131.101562 110.566406 " fill-opacity="1" fill-rule="evenodd"/></g><g clip-path="url(#01c694f7c8)"><path fill="#f38c68" d="M 131.550781 109.742188 C 138.617188 113.167969 146.09375 118.449219 150.996094 124.074219 C 156.832031 130.765625 163.027344 135.867188 169.777344 138.53125 C 172.167969 139.472656 173.535156 140.917969 174.804688 145.152344 C 182.554688 170.988281 188.320312 197.726562 194.808594 224.132812 L 182.8125 224.234375 L 165.890625 143.703125 C 157.582031 139.882812 152.746094 135.738281 149.65625 127.582031 L 144.902344 122.355469 C 140.816406 125.667969 138.050781 126.140625 136.671875 123.632812 C 132.472656 125.316406 130.914062 125.128906 129.636719 122.753906 C 129.113281 120.078125 129.550781 116.953125 130.425781 113.628906 C 122.464844 116.671875 121.027344 113.246094 123.253906 106.847656 C 125.730469 105.269531 128.46875 106.015625 131.550781 109.742188 Z M 131.550781 109.742188 " fill-opacity="1" fill-rule="evenodd"/></g><path fill="#f38c68" d="M 129.644531 93.070312 C 134.394531 90.246094 142.765625 82.707031 144.617188 82.554688 C 148.207031 82.261719 148.957031 85.640625 155.46875 86.753906 C 149.113281 89.953125 142.535156 92.8125 135.605469 95.152344 C 134.140625 93.882812 131.6875 93.40625 129.644531 93.070312 Z M 129.644531 93.070312 " fill-opacity="1" fill-rule="evenodd"/><path fill="#f5ead9" d="M 29.199219 103.960938 L 29 95.21875 C 29.417969 93.722656 30.378906 92.59375 31.648438 92.984375 C 32.1875 97.015625 31.117188 102.15625 29.199219 103.960938 Z M 29.199219 103.960938 " fill-opacity="1" fill-rule="evenodd"/><g clip-path="url(#eaa9aaebc9)"><path fill="#f5ead9" d="M 8.328125 224.105469 L 24.222656 160.371094 C 26.648438 136.054688 29.355469 111.6875 33.828125 87.152344 L 34.894531 79.082031 C 36.714844 77.070312 38.984375 76.25 41.988281 77.8125 L 43.671875 69.320312 C 46.378906 66.75 49.195312 66.613281 50.652344 68.777344 C 52.195312 70.050781 52.429688 71.363281 52.003906 72.695312 C 56.203125 70.792969 60.007812 72.136719 60.3125 77.558594 L 57.949219 137.179688 L 64.476562 132.71875 C 68.289062 126.648438 72.632812 120.476562 78.667969 120.9375 C 81.855469 121.027344 84.214844 122.125 84.582031 125.636719 C 79.261719 131.417969 63.269531 164.703125 52.023438 167.652344 L 42.441406 225.085938 Z M 8.328125 224.105469 " fill-opacity="1" fill-rule="evenodd"/></g><g clip-path="url(#f2748e5f5c)"><path fill="#f38c68" d="M 29.914062 224.726562 C 33.839844 207.058594 40.214844 181.703125 42.121094 171.386719 C 42.660156 168.460938 44.425781 165.40625 47.726562 164.113281 C 56.714844 160.589844 67.964844 142.660156 70.960938 144.363281 C 67.101562 154.53125 60.183594 164.136719 52.496094 166.914062 L 42.570312 225.101562 Z M 29.914062 224.726562 " fill-opacity="1" fill-rule="evenodd"/></g><g clip-path="url(#d965686225)"><path stroke-linecap="butt" transform="matrix(0.0195495, 0, 0, 0.0195894, -9.921737, -16.274975)" fill-opacity="1" fill="#000000" fill-rule="evenodd" stroke-linejoin="round" d="M 3037.349465 1607.89223 L 2758.410597 1612.27917 C 2729.837347 1612.677983 2707.058671 1635.809125 2707.058671 1664.324238 L 2713.252872 4273.556856 C 2713.252872 4277.74439 2713.852311 4281.931925 2714.851376 4285.720646 C 2682.681492 4321.41439 2661.101694 4365.682608 2655.706745 4416.331832 C 2644.117594 4524.808908 2632.128818 4633.086578 2619.740415 4741.563654 C 2556.000086 4698.69128 2483.068362 4685.131646 2417.929343 4696.896623 C 2324.01726 4714.244979 2243.692457 4783.23959 2222.911911 4898.895296 C 2188.144459 5094.512965 2154.775697 5291.925292 2122.805627 5489.935837 C 2074.251081 5488.340586 2035.087745 5499.108531 2004.316552 5520.046202 C 1945.17192 5559.92748 1911.403533 5643.877571 1914.800353 5781.268574 C 1919.795677 5980.076745 1950.56687 6300.921627 1961.556582 6554.965368 C 1961.756395 6559.551715 1962.555646 6564.138062 1963.954337 6568.525003 C 1881.631405 7176.116274 1811.896688 7775.73129 1751.752992 8340.649594 C 1713.988346 8696.789407 1655.642966 9091.813466 1585.708436 9397.503463 C 1365.514574 10360.038109 1125.739042 11286.679605 884.964446 12211.526443 C 877.77118 12239.243932 894.355655 12267.759046 922.329467 12274.937676 C 950.103466 12282.116306 978.476904 12265.565575 985.670169 12237.648681 C 1226.644578 11311.80481 1466.819736 10384.365689 1687.213411 9420.83401 C 1757.947193 9111.554699 1817.091824 8711.944293 1855.455909 8351.616945 C 1948.56874 7474.827047 2065.459312 6513.887652 2215.718645 5569.498987 C 2217.516961 5565.710266 2218.715839 5561.722138 2219.515091 5557.335197 C 2220.713968 5551.951225 2220.713968 5546.567252 2220.11453 5541.382686 C 2234.101436 5453.444468 2248.487968 5365.705656 2263.074312 5278.166251 C 2293.046254 5281.157347 2323.218008 5287.338945 2352.190885 5288.13657 C 2395.35048 5289.333009 2436.112321 5280.160315 2472.478276 5248.255292 C 2497.85452 5225.921776 2522.031886 5190.626845 2540.61449 5133.995431 C 2560.99541 5071.58123 2576.181194 4979.455478 2582.375395 4843.859133 C 2590.367913 4850.838356 2598.160617 4858.615205 2605.353883 4867.18968 C 2529.624778 5521.242641 2441.307457 6174.497975 2326.415015 6825.55984 C 2321.419692 6853.875547 2340.202108 6880.994816 2368.575546 6885.979976 C 2396.948984 6890.965136 2423.923731 6872.021529 2428.919055 6843.705821 C 2549.606072 6159.941309 2641.1204 5473.983326 2719.447074 4787.028311 C 2845.129414 4808.763608 2925.853843 4793.409316 2978.60446 4749.739316 C 3015.769668 4718.831326 3041.345724 4672.569043 3056.731321 4608.160779 C 3071.917104 4544.151328 3077.312054 4459.603018 3079.310183 4353.319412 C 3111.280254 4387.019092 3133.659304 4436.272471 3141.052383 4502.275986 C 3112.479132 4530.7911 3092.497838 4567.481876 3085.104759 4610.154843 C 2979.603525 5219.341366 2919.060203 5976.48743 2816.755977 6660.850161 C 2812.360092 6689.365275 2831.94176 6715.886325 2860.515011 6720.073859 C 2888.888449 6724.261394 2915.46357 6704.719567 2919.659642 6676.204454 C 3000.583884 6135.613729 3055.33263 5549.558348 3126.665851 5027.113605 C 3248.551746 5059.417441 3333.672059 5046.854838 3391.617813 5000.791962 C 3430.181711 4970.282784 3458.555149 4924.020501 3475.938875 4859.811644 C 3491.124658 4804.177261 3498.317924 4733.188586 3499.117176 4647.244432 C 3540.278642 4712.250915 3565.455073 4808.364795 3558.661433 4940.172419 C 3553.266484 5043.464929 3547.871534 5146.358627 3542.076959 5249.252324 C 3542.076959 5250.648169 3541.877146 5251.844607 3541.877146 5253.240452 C 3494.721291 6109.292086 3437.974416 6949.191802 3408.4021 7785.502203 C 3408.002474 7798.862431 3412.598172 7811.225627 3420.390877 7820.597728 C 3367.440447 7843.728869 3312.891513 7863.669508 3260.940148 7880.020832 C 3233.565775 7888.595307 3218.180179 7917.908046 3226.772135 7945.226722 C 3235.364092 7972.744804 3264.536781 7987.899689 3292.110967 7979.325215 C 3481.134011 7920.101517 3695.733112 7813.618504 3795.040144 7689.188917 C 3912.330342 7542.226407 4006.841863 7406.829468 4116.539169 7268.840246 C 4236.027309 7118.687234 4368.50329 7046.900933 4485.593674 7029.153764 C 4416.258583 7107.719882 4367.104599 7170.931708 4337.332471 7223.973808 C 4308.159781 7276.218282 4296.770443 7321.284126 4299.567825 7361.763624 C 4302.565019 7405.433623 4321.547248 7445.314901 4359.311894 7484.398554 C 4397.875792 7524.279832 4459.018553 7564.759329 4544.138866 7611.619831 C 4399.274483 7809.032157 4219.84246 8043.932885 4099.355256 8205.452061 C 4097.357127 8208.243751 4095.55881 8211.234846 4093.960307 8214.425349 C 3717.312909 9017.833695 3540.278642 9181.745748 3183.812352 9309.964057 C 3176.219461 9312.755747 3169.425821 9317.142687 3164.230684 9322.52666 C 3155.239102 9329.70529 3148.645274 9339.875016 3145.847893 9351.839399 C 2929.450476 10315.171671 2765.204237 11290.468326 2640.121335 12265.166762 C 2636.524702 12293.681876 2656.705809 12319.604707 2685.27906 12323.393428 C 2713.652498 12326.982743 2739.827994 12306.842698 2743.424627 12278.327584 C 2795.575805 11872.734986 2854.32081 11466.942982 2920.85852 11062.148009 L 9580.424088 11081.889242 C 9587.017915 11081.889242 9593.212116 11080.692804 9599.006692 11078.499333 C 9672.93748 11465.148324 9741.273507 11850.202064 9806.812152 12234.458178 C 9811.807476 12262.973292 9838.58241 12281.916899 9866.955848 12277.131146 C 9895.329286 12272.345392 9914.311515 12245.42553 9909.516005 12216.910416 C 9682.328689 10885.673354 9422.37205 9545.064192 9011.356827 8162.579687 C 9097.076579 8177.33576 9185.593713 8182.919139 9275.909163 8177.933979 C 9304.682227 8176.338728 9326.661651 8151.811742 9325.063147 8123.097222 C 9323.464644 8094.382702 9298.887652 8072.447999 9270.114588 8073.843844 C 8829.127423 8098.37083 8433.297984 7847.916403 8261.858479 7500.949284 C 8165.149015 7305.132209 7964.137194 7040.121116 7725.360728 6870.027465 C 7554.320849 6748.19016 7306.752613 6518.673405 7111.934993 6286.564367 C 7196.855494 6212.983409 7260.196197 6156.5514 7300.358598 6107.497428 C 7336.524741 6063.029803 7355.706784 6022.550306 7359.902855 5982.070809 C 7364.498553 5939.796654 7353.708654 5896.525467 7322.937461 5847.670902 C 7293.964584 5801.408619 7244.8106 5747.967706 7173.677193 5680.568346 C 7231.822759 5682.163598 7294.963649 5702.303643 7360.502294 5746.372455 C 7364.098927 5749.562958 7368.095186 5752.354647 7372.491071 5754.548117 C 7402.063386 5775.485788 7431.835515 5801.408619 7462.007269 5832.31661 C 7842.251299 6223.352541 8296.825744 6525.852035 8812.143323 6528.244912 C 8840.916387 6528.444318 8864.494314 6505.113771 8864.494314 6476.39925 C 8864.694127 6447.68473 8841.515826 6424.154776 8812.742762 6424.154776 C 8722.027686 6423.556557 8633.510552 6413.187425 8546.991548 6394.243818 C 8577.163302 6227.938888 8652.292969 6107.696835 8767.78485 5943.984188 C 8784.369324 5920.454234 8778.774562 5887.950992 8755.396447 5871.400262 C 8731.81852 5854.849532 8699.448823 5860.432911 8682.864349 5883.962865 C 8627.516164 5962.13017 8581.159561 6031.523594 8543.794541 6100.119392 C 8446.285825 6033.717064 8374.952604 5954.552727 8342.183282 5855.647157 L 9384.207778 5470.394011 C 9385.406656 5471.191637 9386.605533 5472.188669 9387.804411 5472.986294 C 9456.939689 5519.04917 9524.676277 5576.877024 9550.651959 5652.850858 C 10302.34825 7845.922339 10940.750602 10051.357017 11552.977458 12259.383977 C 11560.57035 12286.902059 11589.343414 12303.253383 11616.9176 12295.67594 C 11644.691599 12287.899091 11661.07626 12259.184571 11653.283556 12231.467082 C 11040.657073 10021.446058 10401.655282 7814.216723 9649.15974 5618.951772 C 9626.381065 5552.549444 9580.224275 5495.120403 9524.87609 5446.664651 C 9566.437182 5430.512733 9600.405382 5402.595838 9623.184058 5357.330588 L 11069.62995 4826.510777 C 11073.626209 4824.915525 11077.422655 4823.120868 11080.819475 4820.727991 C 11083.017417 4820.129772 11085.21536 4819.332147 11087.213489 4818.534521 C 11253.457857 4752.929819 11306.208474 4641.26224 11296.817266 4544.749547 C 11282.630547 4399.382288 11118.184495 4271.163979 10924.965379 4341.953248 C 10920.969121 4342.352061 10916.773049 4343.349093 10912.77679 4344.744937 L 9893.530969 4715.640824 L 9865.557157 1492.037117 C 9865.357344 1463.522003 9842.179043 1440.590268 9813.605792 1440.390862 L 3090.100082 1422.643693 C 3061.327019 1422.444287 3037.948904 1445.774834 3037.749091 1474.489355 Z M 3017.767797 10504.607742 C 2990.193611 10655.558379 2963.61849 10806.708423 2938.242246 10958.057874 L 9579.624836 10977.5997 C 9572.031944 10937.718422 9564.23924 10898.03655 9556.446535 10858.155272 L 3068.120659 10844.196825 C 3054.333566 10844.196825 3040.946098 10838.613446 3031.155264 10828.842533 C 3021.564243 10819.07162 3015.969481 10805.711391 3016.169293 10791.95235 Z M 4675.815596 6941.215546 C 4736.159104 6959.959747 4787.111405 6990.867738 4824.076799 7029.153764 C 4894.011329 7101.937097 4919.387573 7201.042073 4876.227977 7303.138145 C 4874.429661 7307.724492 4871.832093 7313.108464 4868.635085 7319.090656 L 5306.025617 7325.272254 C 5319.81271 7325.471661 5333.200177 7331.254446 5342.791199 7341.224765 C 5352.38222 7351.195085 5357.577356 7364.555313 5357.377543 7378.314354 L 5330.602609 8844.350136 C 5330.00317 8872.267031 5307.224495 8894.999359 5279.250683 8895.398172 L 4107.147961 8912.148309 C 4092.961242 8912.347715 4079.373962 8906.764336 4069.383315 8896.794017 C 4059.392667 8886.624291 4053.997718 8872.86525 4054.197531 8858.707396 L 4062.789487 8516.725437 C 3752.280174 9128.703649 3562.457879 9280.850724 3241.957919 9399.696933 C 3201.196078 9581.954374 3162.232555 9764.810034 3125.067347 9947.8651 L 3120.671463 10740.106689 L 9535.665989 10754.065136 C 9509.090867 10620.064042 9481.716494 10486.062948 9453.343056 10351.862447 L 5864.702605 10367.216739 C 5850.915512 10367.216739 5837.528045 10361.832766 5827.737211 10352.061853 C 5817.946376 10342.29094 5812.351614 10328.930712 5812.351614 10315.171671 L 5811.951988 7375.323258 C 5811.951988 7361.364811 5817.54675 7348.004583 5827.337585 7338.23367 C 5837.328232 7328.462756 5850.515886 7323.078784 5864.502792 7323.078784 L 8038.267796 7334.644354 C 7993.309884 7272.628967 7941.758145 7209.417141 7885.211082 7149.395818 C 7825.666825 7215.199927 7774.914337 7258.471113 7730.356051 7282.200474 C 7691.792153 7302.739332 7656.425262 7309.917962 7623.65594 7307.126273 C 7571.304949 7302.340519 7522.150965 7271.033716 7475.194923 7208.619516 C 7473.59642 7206.426045 7472.197729 7204.232575 7470.998852 7202.039105 C 7432.834579 7239.3281 7387.077416 7262.060428 7338.722683 7269.837278 C 7263.79283 7282.001067 7181.070272 7258.67052 7108.138548 7192.268192 C 7083.561556 7170.134082 7065.778204 7130.053398 7057.985499 7079.204768 C 7051.991111 7039.32349 7051.391672 6991.864769 7053.589614 6945.203674 Z M 4098.156378 10357.445826 L 5301.030294 10347.874319 C 5329.803357 10347.674913 5352.981659 10324.144959 5352.781846 10295.231032 C 5352.582033 10266.516512 5329.004106 10243.385371 5300.231042 10243.584777 L 4097.357127 10253.35569 C 4068.584063 10253.555097 4045.405761 10277.085051 4045.605574 10305.799571 C 4045.805387 10334.514091 4069.383315 10357.645232 4098.156378 10357.445826 Z M 8104.605693 7433.151111 C 8097.412427 7436.939833 8089.020283 7439.133303 8080.428327 7439.133303 C 8080.428327 7439.133303 5916.254344 7427.567732 5916.254344 7427.567732 C 5916.254344 7818.204851 5916.65397 10262.72779 5916.65397 10262.72779 L 9431.16382 10247.772311 C 9282.303177 9552.043415 9108.865543 8849.933515 8894.865881 8136.258044 C 8572.767418 8046.325762 8305.4177 7824.585856 8168.545835 7547.211567 C 8150.762483 7511.318416 8129.382498 7472.832983 8104.605693 7433.151111 Z M 4097.756752 10133.911262 L 5315.416825 10121.548066 C 5344.189889 10121.34866 5367.368191 10097.818706 5366.968565 10068.904779 C 5366.768752 10040.389665 5343.190824 10017.258524 5314.417761 10017.45793 L 4096.757688 10029.821127 C 4067.984624 10030.020533 4044.806323 10053.550487 4045.205948 10082.464414 C 4045.405761 10111.178934 4068.983689 10134.110669 4097.756752 10133.911262 Z M 4097.357127 9887.444964 L 5315.0172 9875.081768 C 5343.790263 9874.882361 5366.768752 9851.352407 5366.568939 9822.438481 C 5366.369126 9793.72396 5342.791199 9770.592819 5314.018135 9770.991632 L 4096.158249 9783.354828 C 4067.584998 9783.554234 4044.406697 9807.084189 4044.60651 9835.798709 C 4045.006136 9864.513229 4068.584063 9887.64437 4097.357127 9887.444964 Z M 4094.559745 9631.805971 L 5297.633474 9622.234465 C 5326.406537 9622.035058 5349.385026 9598.505104 5349.185213 9569.790584 C 5348.9854 9540.876657 5325.407473 9517.745516 5296.834222 9518.144329 L 4093.760494 9527.715836 C 4064.98743 9527.915242 4042.008941 9551.445196 4042.208754 9580.159716 C 4042.408567 9608.874237 4065.986495 9632.005378 4094.559745 9631.805971 Z M 4103.151702 9391.720677 L 5320.811775 9379.556888 C 5349.584839 9379.158075 5372.76314 9355.628121 5372.563327 9326.913601 C 5372.163701 9298.19908 5348.585774 9275.067939 5319.81271 9275.267345 L 4102.152637 9287.630542 C 4073.379573 9287.829948 4050.401085 9311.359902 4050.600898 9340.273829 C 4050.800711 9368.988349 4074.378638 9392.11949 4103.151702 9391.720677 Z M 4095.55881 9144.257347 L 5298.432725 9134.68584 C 5327.205789 9134.486434 5350.38409 9110.95648 5350.184277 9082.24196 C 5349.784652 9053.527439 5326.406537 9030.196892 5297.633474 9030.595704 L 4094.759558 9040.167211 C 4065.986495 9040.366618 4042.808193 9063.896572 4043.008006 9092.611092 C 4043.207819 9121.325612 4066.785746 9144.456753 4095.55881 9144.257347 Z M 4805.694009 7420.588509 C 4666.224574 7628.569374 4365.10647 8023.79284 4186.074073 8263.479321 L 4171.887354 8293.789092 C 4172.28698 8296.780188 4172.486793 8299.771284 4172.486793 8302.961786 C 4172.486793 8302.961786 4159.698765 8807.260547 4159.698765 8807.260547 C 4159.698765 8807.260547 5227.299318 8791.906255 5227.299318 8791.906255 C 5227.299318 8791.906255 5252.275936 7428.764171 5252.275936 7428.764171 L 4819.481102 7422.582573 C 4814.685591 7422.582573 4810.089893 7421.784947 4805.694009 7420.588509 Z M 3565.455073 6660.052536 C 3544.674527 7033.540705 3526.291736 7405.234217 3513.104082 7776.329509 C 3595.82664 7732.460103 3668.358739 7680.813848 3713.516464 7624.182433 C 3830.806661 7477.219924 3925.318183 7342.022391 4035.015488 7204.033169 C 4153.104938 7055.674814 4282.783537 6974.516414 4404.669432 6940.816734 L 3621.202884 6939.420889 C 3592.829446 6939.420889 3569.651145 6916.68856 3569.251519 6888.173446 Z M 4619.06872 7032.743079 C 4616.870778 7037.528833 4613.873583 7042.11518 4610.276951 7046.103308 C 4536.745788 7127.062302 4481.797228 7191.470566 4446.030712 7245.709104 C 4417.457461 7289.179697 4401.272612 7323.27819 4403.470555 7354.584994 C 4405.468684 7382.302482 4423.851475 7405.03481 4453.623603 7430.160015 C 4489.589933 7460.469787 4540.342421 7491.178371 4606.080879 7526.672708 C 4695.397264 7402.84134 4763.133852 7303.536958 4780.317765 7262.658648 C 4815.085217 7180.702621 4772.52506 7103.133535 4694.997638 7060.859381 C 4672.218963 7048.496184 4646.642906 7038.924678 4619.06872 7032.743079 Z M 7642.837982 6938.82267 C 7632.847335 7016.790568 7611.866976 7095.556092 7578.098589 7169.934676 C 7595.482315 7189.277096 7612.666228 7201.440886 7632.847335 7203.235543 C 7653.028442 7205.030201 7674.008801 7196.056913 7698.585793 7179.904996 C 7731.954555 7157.970293 7768.720136 7123.273581 7811.480106 7075.615453 C 7764.92369 7031.945454 7715.769706 6991.067144 7664.817406 6954.775181 C 7657.62414 6949.790021 7650.231061 6944.406049 7642.837982 6938.82267 Z M 7265.990772 6607.209842 C 7264.991708 6608.805094 7263.992643 6610.200938 7262.793765 6611.596783 C 7216.636975 6672.216326 7197.055307 6736.225777 7172.078689 6808.211484 C 7163.28692 6864.643492 7152.896647 6954.974587 7157.492344 7029.552577 C 7158.891035 7052.284906 7161.688416 7073.421983 7166.883553 7090.969745 C 7169.680934 7101.139471 7172.478315 7110.112759 7178.27289 7115.297325 C 7224.030054 7156.973261 7274.982355 7174.720429 7322.138209 7167.142987 C 7368.095186 7159.565544 7408.4574 7127.859928 7435.032522 7076.413079 C 7469.799974 7009.611938 7487.982952 6869.628652 7450.617931 6781.491028 C 7390.474236 6728.249521 7327.932785 6669.424636 7265.990772 6607.209842 Z M 6736.086848 6310.094321 L 6523.68569 6337.612403 L 6517.891115 6840.116506 L 7062.581197 6841.113538 C 7064.978952 6821.172899 7067.57652 6803.026918 7069.974275 6787.273813 C 7070.373901 6784.282717 7071.173153 6781.291621 7072.172218 6778.499932 C 7079.565297 6757.163448 7086.55875 6736.62459 7093.951829 6716.683951 C 7034.207759 6748.588973 6976.062192 6766.136736 6924.110827 6770.124863 C 6847.182844 6775.907649 6782.043825 6752.975914 6738.084978 6706.115412 C 6673.145771 6636.921395 6650.766722 6503.917332 6736.086848 6310.094321 Z M 5996.179521 6332.826649 L 5958.814501 6333.026056 L 5956.616559 6839.119474 L 6413.588759 6839.9171 L 6419.383334 6351.172037 L 6278.115583 6369.517425 C 6277.116519 6369.716832 6276.117454 6369.716832 6275.318202 6369.716832 C 6150.2353 6379.088932 6075.705072 6376.895462 6042.536124 6366.127517 C 6018.558571 6358.550074 6004.172039 6346.58569 5996.179521 6332.826649 Z M 5399.737887 6334.621307 L 5398.53901 6838.321849 L 5852.514015 6838.920068 L 5854.512145 6333.424869 Z M 4826.674367 6336.415964 L 4824.676238 6837.324817 L 5294.436466 6838.122443 L 5295.635344 6335.02012 Z M 4249.814402 6338.210622 L 4247.816272 6836.327785 L 4720.373882 6837.125411 L 4722.571824 6336.814777 Z M 4143.713729 6836.128379 L 4145.711859 6338.410028 L 3664.162667 6340.005279 L 3672.55481 6835.330753 Z M 5477.465122 6616.980756 C 5477.265309 6618.775413 5477.265309 6620.370664 5477.465122 6621.965915 C 5482.860071 6725.457832 5552.594788 6777.104087 5618.932685 6782.48806 C 5690.066093 6788.470251 5763.397443 6744.401439 5769.99127 6644.498837 C 5775.186407 6564.138062 5715.042711 6520.866875 5641.111922 6517.078154 C 5622.529318 6516.081122 5603.347276 6518.075186 5585.164298 6522.462127 C 5586.962615 6514.884684 5589.959809 6507.90546 5595.354758 6502.122675 C 5611.739419 6485.173132 5642.3108 6483.777287 5695.461042 6492.152355 C 5723.83448 6496.738702 5750.409602 6477.196876 5755.005299 6448.881169 C 5759.401184 6420.366055 5740.019329 6393.845005 5711.645891 6389.258658 C 5608.142786 6372.907334 5551.99535 6397.035507 5520.225092 6430.136968 C 5498.845107 6452.470484 5486.656517 6480.985597 5481.061755 6512.292401 C 5475.067367 6546.5903 5477.664935 6584.876327 5477.465122 6616.581943 Z M 5583.365982 6632.135641 C 5587.961679 6654.469157 5599.950456 6669.823449 5615.735678 6676.005047 C 5628.323894 6680.990207 5643.110051 6679.993175 5653.100699 6670.820481 C 5660.893403 6663.641851 5665.089475 6652.275687 5666.08854 6637.71902 C 5666.488166 6630.54039 5661.293029 6626.751669 5655.498454 6624.757605 C 5644.508742 6620.570071 5631.121275 6620.171258 5618.333247 6621.766509 C 5605.745031 6623.36176 5592.157751 6625.754637 5583.365982 6632.135641 Z M 6972.065934 6279.385737 L 6831.197809 6297.731125 C 6830.198744 6315.278887 6830.59837 6330.234366 6828.999867 6343.993407 C 6819.209032 6427.345278 6783.842141 6486.768383 6783.642329 6538.813451 C 6783.642329 6580.688793 6793.632976 6613.192034 6814.013896 6634.927331 C 6837.991449 6660.451349 6874.357405 6669.424636 6916.318123 6666.234134 C 6995.843674 6660.251942 7091.753886 6610.998564 7181.070272 6521.066282 L 7181.66971 6520.468063 C 7107.539109 6441.901945 7036.006075 6360.145325 6972.065934 6279.385737 Z M 8244.474753 5891.739714 L 7844.649054 6039.499849 C 8030.674904 6186.262952 8231.486912 6302.915691 8445.886199 6367.722768 C 8457.675163 6305.70738 8475.058889 6249.275372 8498.037377 6194.638021 C 8374.552979 6113.280214 8285.836032 6014.175238 8244.474753 5891.739714 Z M 6188.999011 6238.507427 C 6171.215659 6249.873591 6155.430437 6260.043317 6141.643344 6269.415417 C 6159.626508 6269.81423 6180.407054 6269.81423 6202.985917 6269.016604 C 6202.186665 6258.846879 6197.191342 6248.876559 6188.999011 6238.507427 Z M 6798.228673 5920.055421 C 6793.832789 5925.239987 6788.437839 5929.826334 6781.844012 5933.016837 L 6278.914835 6185.066514 C 6296.298561 6210.191719 6305.090331 6235.316924 6307.08846 6260.641536 L 6899.933461 6183.670669 C 6879.952167 6155.753775 6861.16975 6128.235693 6843.985837 6101.116424 C 6808.419133 6045.681447 6794.232415 5982.868434 6798.228673 5920.055421 Z M 3653.772394 5710.678711 L 3662.564163 6235.715737 L 4146.111485 6234.319893 L 4148.309427 5706.491177 Z M 4252.611783 5705.693552 L 4250.413841 6233.92108 L 4722.97145 6232.525235 L 4725.169393 5701.506017 Z M 4829.271936 5700.708392 L 4827.073993 6232.325829 L 5295.835157 6230.929984 L 5297.034035 5696.720264 Z M 5401.336391 5695.723232 L 5399.9377 6230.531171 L 5855.111584 6229.135326 L 5857.309526 5691.934511 Z M 6419.78296 5687.148757 L 5961.611882 5691.136885 L 5959.214127 6228.93592 L 6025.95165 6228.736514 C 6057.322282 6199.623181 6118.864668 6159.143683 6203.585356 6106.699803 C 6204.784233 6105.902177 6206.182924 6105.104552 6207.581615 6104.306926 L 6419.982773 5998.02332 C 6418.983708 5994.035192 6418.384269 5989.847658 6418.384269 5985.460717 Z M 7050.192794 5708.285835 C 6986.852091 5740.390264 6939.496424 5796.822272 6916.517935 5859.635285 C 6894.338699 5920.853047 6895.537576 5988.65122 6931.503906 6044.883822 C 6958.678466 6087.157976 6991.048163 6130.429163 7024.416925 6174.497975 C 7032.009816 6184.468295 7041.401025 6192.245144 7051.391672 6200.420806 C 7113.333684 6146.780487 7162.088042 6104.506332 7198.254185 6065.821493 C 7231.622946 6030.327155 7253.002931 6001.612635 7256.399751 5970.904051 C 7259.396945 5942.189531 7244.610787 5914.07323 7217.436227 5878.379486 C 7182.069336 5831.917797 7126.721151 5777.679259 7050.192794 5708.285835 Z M 4358.113017 6137.20898 C 4410.264195 6194.837427 4494.385444 6204.408934 4554.52914 6179.084322 C 4588.896966 6164.727062 4615.472087 6139.203044 4628.260115 6107.098615 C 4640.848331 6075.592406 4641.247957 6035.910534 4616.471152 5991.243503 C 4610.876389 5981.073777 4604.482375 5972.100489 4597.688735 5964.124234 C 4606.480505 5950.963412 4613.074332 5935.60912 4617.070591 5918.061357 C 4633.255439 5846.07565 4603.882936 5796.622866 4562.72147 5770.899441 C 4501.57871 5732.414008 4405.668497 5747.568894 4366.105535 5831.71839 C 4353.916945 5857.641221 4365.10647 5888.748618 4391.082152 5900.912408 C 4417.257648 5913.275604 4448.228654 5902.108846 4460.417243 5875.986609 C 4470.008265 5855.647157 4492.387314 5849.664966 4507.373285 5859.037066 C 4516.964306 5865.218664 4519.162249 5878.180079 4515.365803 5895.129623 C 4510.969918 5914.472042 4492.587127 5921.25186 4474.404149 5923.44533 C 4445.830899 5926.635832 4425.449979 5952.359257 4428.646986 5980.87437 C 4431.843993 6009.389484 4457.420049 6030.127749 4485.9933 6026.937247 C 4503.177213 6025.142589 4517.363932 6027.136653 4525.35645 6041.693319 C 4531.350838 6052.461265 4534.348032 6061.235146 4531.350838 6068.812589 C 4528.75327 6075.791812 4521.560004 6079.979346 4513.967112 6083.169849 C 4489.989559 6093.140168 4456.221172 6090.348479 4435.440626 6067.217337 C 4416.258583 6045.880854 4383.289448 6044.285602 4361.909463 6063.628022 C 4340.529478 6082.771036 4338.930974 6115.872497 4358.113017 6137.20898 Z M 2106.420965 5593.62716 C 2089.237052 5594.225379 2074.650707 5598.213507 2062.661931 5606.389169 C 2047.276334 5616.758302 2037.685313 5633.907251 2030.69186 5656.63958 C 2021.100839 5688.345196 2017.704019 5728.824693 2018.902896 5778.476884 C 2020.901026 5858.638253 2027.29504 5958.540855 2034.688119 6065.821493 C 2057.666607 5908.290444 2081.444347 5750.759396 2106.420965 5593.62716 Z M 7499.771915 5723.839533 C 7511.960505 5735.006291 7524.348907 5746.970674 7536.73731 5759.732683 C 7606.272214 5831.120171 7678.204873 5899.715969 7752.535288 5963.526014 C 7755.332669 5961.930763 7758.329863 5960.335512 7761.52687 5959.139074 C 7761.52687 5959.139074 9313.074371 5385.646295 9313.074371 5385.646295 C 9244.138905 5293.719949 9214.366777 5177.466024 9205.77482 5066.795477 Z M 6583.629573 5685.752913 L 6523.885503 5686.351132 L 6522.886438 5946.377065 L 6686.333425 5864.421038 C 6645.171959 5843.084555 6617.198147 5818.557569 6601.013299 5790.640674 C 6584.229012 5761.926154 6577.635185 5727.628255 6583.629573 5685.752913 Z M 8889.470932 5076.965203 C 8621.321963 4948.348081 8339.785526 4796.201005 8054.452644 4636.875299 C 7990.712316 4609.955437 7942.957022 4596.395802 7894.202664 4605.36909 C 7842.451112 4614.74119 7790.899373 4647.643244 7719.566152 4705.86991 C 7465.404089 4913.252556 7101.744533 5223.130087 6885.946555 5429.715107 C 6799.227738 5512.867572 6736.686287 5577.07643 6719.902 5609.380265 C 6701.918835 5644.076977 6690.329684 5672.990904 6686.333425 5698.116109 C 6683.735857 5713.869214 6684.535109 5727.229442 6690.929123 5738.3962 C 6698.921641 5751.955834 6713.308173 5762.12556 6732.290402 5772.09588 C 6756.667581 5784.857889 6787.8384 5795.82524 6825.603047 5806.393779 C 6878.753289 5680.967159 7003.636378 5578.671681 7161.088977 5576.478211 C 7235.219579 5575.281772 7317.342699 5596.219443 7402.662825 5649.660356 L 7573.303078 5583.856247 C 7564.311496 5564.115015 7568.507568 5539.986841 7585.092042 5524.433143 C 7679.403751 5435.896706 7771.517517 5340.181638 7858.436147 5228.912872 C 7837.655601 5185.242873 7828.664019 5132.599586 7832.460465 5065.997851 C 7834.058968 5037.283331 7858.63596 5015.348628 7887.409024 5016.943879 C 7915.982275 5018.539131 7937.961699 5043.066117 7936.363195 5071.780637 C 7933.366001 5127.41502 7940.359454 5169.090955 7962.538691 5201.793603 C 7998.904646 5255.633329 8070.038054 5284.547255 8176.538352 5317.249903 C 8189.326381 5321.038625 8199.516841 5329.613099 8205.910855 5340.181638 Z M 3645.979689 5255.832735 L 3651.974077 5606.588576 L 4148.908866 5602.401041 L 4150.906995 5099.896938 L 3654.571645 5100.096344 C 3651.774264 5152.141412 3648.976883 5203.987074 3645.979689 5255.832735 Z M 4255.209351 5099.697531 L 4253.011409 5601.40401 L 4725.569018 5597.415882 L 4727.567148 5099.498125 Z M 4831.669691 5099.498125 L 4829.671562 5596.618256 L 5297.433661 5592.430722 L 5298.432725 5099.298719 Z M 5402.735081 5099.298719 L 5401.536204 5591.633096 L 5857.709152 5587.844375 L 5859.907094 5099.099312 Z M 5964.009637 5098.899906 L 5962.011508 5586.847343 L 6420.182586 5583.058622 L 6422.380528 5098.700499 Z M 6974.463689 5098.501093 L 6526.483071 5098.700499 L 6524.484942 5582.06159 L 6617.597773 5581.263964 C 6620.79478 5574.88296 6623.991787 5568.103142 6627.58842 5561.323325 C 6646.57065 5524.632549 6715.106489 5449.057527 6814.013896 5354.538898 C 6861.16975 5309.273648 6915.319058 5259.222644 6974.064063 5206.180544 C 6974.064063 5205.183512 6973.86425 5204.18648 6973.86425 5203.189448 Z M 7924.774044 5312.862963 C 7864.830162 5387.839765 7802.888149 5456.036751 7739.347634 5519.846796 L 8072.036183 5391.827893 C 8010.094171 5368.497346 7961.539626 5343.172734 7924.774044 5312.862963 Z M 9391.201231 4978.857259 C 9358.631721 4973.672693 9330.458097 4986.035889 9307.479608 5014.351596 C 9309.877363 5134.59365 9335.853046 5270.389402 9429.365503 5360.52109 C 9465.731459 5359.125245 9497.901343 5351.946615 9519.281327 5326.82141 C 9440.754841 5232.701594 9387.604598 5123.227485 9391.201231 4978.857259 Z M 10878.209151 4468.177493 C 10880.606906 4576.853976 10896.991567 4665.390413 10963.129652 4754.52507 C 10963.129652 4754.52507 9596.009497 5256.430954 9596.009497 5256.430954 C 9533.268233 5179.460088 9490.508264 5089.926618 9495.903213 4971.279816 C 9495.903213 4971.279816 10878.209151 4468.177493 10878.209151 4468.177493 Z M 2479.871355 4797.796256 C 2465.28501 4796.400412 2450.698666 4796.799224 2436.71176 4799.391508 C 2382.362639 4809.361827 2337.404727 4850.439543 2325.615763 4917.041278 C 2310.230167 5002.985432 2295.244196 5089.128993 2280.458038 5175.272553 C 2300.439333 5177.864836 2320.420627 5181.254745 2340.002295 5183.049403 C 2362.780971 5185.242873 2384.960207 5186.638718 2403.542811 5170.087987 C 2423.324292 5152.739631 2438.11045 5120.834609 2450.898478 5068.390728 C 2466.084262 5006.175934 2476.274722 4919.035342 2479.871355 4797.796256 Z M 7095.150706 5098.301687 L 7078.566232 5098.301687 L 7078.566232 5113.05776 L 7080.364548 5111.263102 Z M 1073.388051 4451.22795 C 1053.206944 4423.709868 1043.41611 4392.602471 1046.013678 4351.325348 C 1106.756813 4260.196628 1527.363057 3628.875996 1550.940984 3593.581065 C 1591.902638 3540.339559 1629.267658 3477.725952 1713.189094 3473.339012 C 1741.762345 3471.743761 1763.941581 3447.216775 1762.343078 3418.502254 C 1760.744574 3389.98714 1736.367395 3367.853031 1707.594332 3369.248876 C 1587.107127 3375.829287 1526.363993 3455.19303 1467.419174 3531.166865 C 1466.619923 3532.163897 1465.820671 3533.160929 1465.221232 3534.157961 L 952.101595 4304.464847 C 947.70571 4311.244664 944.708516 4319.021513 943.709452 4327.197175 C 932.71974 4420.918179 958.495609 4483.332379 1012.445104 4540.362606 L 909.541438 4690.914431 C 849.19793 4771.873426 880.368749 4875.165936 964.889623 4955.327305 C 1030.028643 5017.342692 1125.139604 5064.4026 1212.058234 5072.578262 C 1278.396131 5078.75986 1340.338143 5063.006756 1385.895494 5020.533194 C 1389.092501 5017.741505 1391.690069 5014.551003 1394.087824 5011.161094 L 2256.480485 3705.647456 C 2258.478615 3702.656361 2260.077118 3699.665265 2261.475809 3696.275356 C 2270.667204 3673.144215 2269.268514 3641.837411 2249.287219 3607.340106 C 2223.711163 3562.673075 2161.569337 3504.645815 2091.434995 3457.3865 C 2020.701213 3409.92778 1942.174726 3373.835223 1887.825606 3368.251844 C 1849.661334 3364.463123 1819.289767 3374.234036 1799.308472 3392.579424 C 1794.912588 3396.567551 1329.548244 4076.742749 1073.388051 4451.22795 Z M 3130.66211 4258.601377 C 3179.616281 4299.679093 3219.379056 4360.697449 3237.362221 4445.644571 C 3240.559228 4444.647539 3243.756235 4443.849914 3246.953242 4442.852882 C 3341.264951 4418.126489 3466.547666 4443.849914 3555.0648 4545.945985 L 3570.65021 2626.659478 C 3570.850022 2598.144364 3594.028324 2575.013223 3622.601575 2575.013223 L 8134.377821 2568.233406 C 8163.150885 2568.233406 8186.528999 2591.364547 8186.528999 2620.079067 L 8188.926755 3182.006275 C 8189.526194 3184.997371 8189.925819 3188.187873 8189.925819 3191.378376 C 8189.925819 3194.768284 8189.526194 3197.958787 8188.926755 3200.949882 L 8194.921143 4593.803519 L 8194.72133 4595.797583 C 8470.862817 4748.742284 8742.408606 4893.511324 9000.367115 5014.351596 C 9007.360568 5017.542099 9013.155143 5022.128446 9017.950654 5027.512418 L 9228.553496 4946.354017 C 9283.901681 4879.154064 9354.036024 4857.618173 9435.160079 4882.344566 L 9789.628239 4753.328631 L 9761.85424 1544.480998 C 9761.85424 1544.480998 3141.651821 1526.933235 3141.651821 1526.933235 Z M 3661.764911 4495.097356 L 3659.566969 4494.897949 L 3657.369027 4771.674019 C 3657.169214 4775.263334 3656.969401 4778.653243 3656.170149 4782.043152 L 3655.970336 4783.438996 C 3663.163602 4831.695343 3665.76117 4885.535068 3662.564163 4945.556392 L 3659.966595 4996.006208 L 4151.306621 4995.607396 L 4153.504563 4492.903886 Z M 4257.607107 4492.505073 L 4255.608977 4995.607396 L 4727.966774 4995.407989 L 4729.964903 4490.511009 Z M 4834.067446 4490.112196 L 4832.069317 4995.407989 L 5298.832351 4995.208583 L 5300.031229 4488.118132 Z M 7541.133194 4717.834294 L 7541.133194 4478.546625 L 7081.1638 4480.540689 L 7078.965858 4994.211551 L 7203.649134 4994.211551 C 7207.045954 4994.211551 7210.242961 4994.410957 7213.439968 4995.208583 C 7235.619205 4975.866163 7257.998255 4956.723149 7280.177491 4937.580136 L 7218.435292 4937.779542 C 7197.454933 4937.779542 7178.472703 4925.017533 7170.480186 4905.675114 C 7162.287855 4886.332694 7166.68374 4863.999178 7181.270085 4849.043699 L 7324.535965 4703.67644 C 7324.735777 4703.477034 7324.93559 4703.078221 7325.335216 4702.878815 C 7343.91782 4684.732833 7352.110151 4668.979728 7343.91782 4656.616532 C 7329.930914 4635.878267 7293.964584 4636.27708 7268.388528 4664.792194 C 7249.206485 4686.328084 7216.23735 4688.122742 7194.857365 4668.979728 C 7173.47738 4649.836715 7171.47925 4616.735254 7190.661293 4595.39877 C 7271.385722 4505.267082 7386.67779 4533.183976 7430.436824 4598.589272 C 7460.608579 4643.854523 7465.803715 4711.054477 7398.26694 4777.057992 C 7398.26694 4777.057992 7342.918755 4833.49 7342.918755 4833.49 L 7392.072739 4833.49 C 7395.469559 4833.49 7398.666566 4833.689407 7401.863573 4834.287626 L 7445.023169 4797.995663 C 7463.206147 4782.641371 7481.588937 4767.486485 7499.771915 4752.132193 Z M 5404.133772 4487.719319 L 5402.934894 4995.009176 L 5860.30672 4994.80977 L 5862.504663 4485.725255 Z M 5966.607206 4485.326443 L 5964.409263 4994.80977 L 6422.780154 4994.610364 L 6425.177909 4483.332379 Z M 6529.280452 4482.933566 L 6527.08251 4994.410957 L 6974.863315 4994.211551 L 6976.861444 4480.939502 Z M 1033.625276 4693.905527 L 994.861565 4750.736348 C 994.461939 4751.334567 993.8625 4751.932787 993.462874 4752.730412 C 978.077278 4772.870458 980.27522 4796.001599 990.46568 4818.534521 C 1000.056701 4840.070411 1016.441363 4860.808676 1036.62247 4879.752283 C 1085.576641 4926.413378 1156.510236 4962.705341 1221.849068 4968.886939 C 1255.217829 4971.878035 1286.988087 4967.291688 1310.96564 4947.949268 L 1342.536085 4900.091735 C 1217.053557 4856.421735 1114.949143 4788.822969 1033.625276 4693.905527 Z M 5666.08854 4840.469224 L 5666.08854 4890.919041 C 5665.888727 4919.633561 5689.266841 4942.964109 5718.039905 4942.964109 C 5746.812969 4942.964109 5770.191083 4919.633561 5770.191083 4890.919041 L 5770.390896 4729.001052 C 5770.390896 4700.286531 5747.412408 4676.955984 5718.639344 4676.756577 C 5690.066093 4676.756577 5666.488166 4699.688312 5666.288353 4728.402833 L 5666.08854 4736.179682 C 5666.08854 4736.179682 5622.329505 4736.977307 5622.329505 4736.977307 C 5622.329505 4736.977307 5703.653373 4615.339409 5703.653373 4615.339409 C 5719.638409 4591.410642 5713.244394 4559.106807 5689.466654 4543.154296 C 5665.489101 4527.201785 5633.119404 4533.582789 5617.134369 4557.511556 L 5480.462316 4761.903106 C 5469.672417 4778.055024 5468.673352 4798.793288 5477.864748 4815.742832 C 5487.255956 4832.891781 5505.239121 4843.260913 5524.620976 4842.862101 Z M 3393.416129 4553.922241 C 3371.03708 4544.350734 3347.858778 4539.365574 3325.080103 4538.368543 C 3259.541458 4535.576853 3198.198884 4567.481876 3187.608798 4627.902012 C 3171.224137 4723.01886 3155.83854 4821.725023 3141.252196 4923.02347 C 3226.971948 4947.949268 3286.915831 4950.940364 3326.878419 4919.234748 C 3357.4498 4895.106575 3373.434835 4853.231233 3383.625295 4796.001599 C 3395.014633 4732.191554 3397.212575 4651.431966 3393.416129 4553.922241 Z M 1869.043189 3472.142573 C 1864.647305 3478.523578 1858.25329 3487.496865 1851.060024 3498.065404 C 1738.765151 3660.581612 1295.779857 4309.649413 1094.768036 4604.172651 C 1172.295458 4703.477034 1273.800433 4770.078768 1402.080342 4809.960046 L 2160.170647 3662.575676 C 2157.772892 3657.989329 2154.176259 3651.408918 2150.779439 3646.822571 C 2126.202447 3614.119923 2081.64416 3576.232709 2033.289428 3543.729467 C 1985.334322 3511.625039 1933.382957 3484.306363 1892.421304 3474.53545 C 1884.828412 3472.740792 1874.438139 3472.34198 1869.043189 3472.142573 Z M 11064.834439 4715.042604 C 11159.545774 4673.366669 11198.908924 4613.345345 11193.114349 4554.919273 C 11184.922018 4471.168589 11091.609374 4404.965667 10982.111881 4433.081968 C 10981.512442 4542.755483 10990.703838 4627.503199 11064.834439 4715.042604 Z M 2976.006892 4298.083842 C 2929.650289 4289.90818 2881.295557 4297.884436 2841.332969 4318.423294 C 2798.173373 4340.557403 2764.604799 4378.045805 2759.209849 4427.498589 C 2750.018454 4512.844525 2740.627245 4598.19046 2731.236037 4683.336988 C 2774.995072 4691.51265 2811.960466 4694.902559 2842.931472 4692.709089 C 2871.904349 4690.715025 2894.683024 4683.935207 2911.866937 4669.577947 C 2941.039627 4645.449774 2953.627842 4603.973245 2962.419612 4547.142424 C 2972.610072 4482.13594 2975.007827 4399.581695 2976.006892 4298.083842 Z M 8559.779576 4675.360733 L 9407.186267 4664.9916 C 9435.95933 4664.592788 9458.937819 4640.863427 9458.738006 4612.148907 C 9458.33838 4583.434387 9434.760453 4560.303245 9405.987389 4560.702058 L 8558.580699 4571.071191 C 8529.807635 4571.470003 8506.829147 4594.999957 8507.228773 4623.913884 C 8507.428585 4652.628404 8531.206326 4675.560139 8559.779576 4675.360733 Z M 8090.418974 4538.966762 L 8090.219161 4476.353155 L 7645.235738 4478.147813 L 7645.235738 4632.089546 L 7653.627881 4625.110322 C 7743.343892 4552.127583 7810.481041 4514.639182 7875.420248 4502.874205 C 7940.75908 4490.909822 8005.498473 4503.871237 8090.418974 4538.966762 Z M 8553.385562 4405.763293 L 9407.785705 4394.596535 C 9436.358956 4394.197722 9459.537258 4370.667768 9459.137632 4341.953248 C 9458.738006 4313.238728 9435.160079 4290.107587 9406.387015 4290.506399 L 8551.986872 4301.473751 C 8523.213808 4301.872564 8500.23532 4325.601924 8500.634945 4354.316444 C 8501.034571 4383.030964 8524.612499 4406.162106 8553.385562 4405.763293 Z M 3664.562293 3873.547637 L 3660.566034 4390.807814 L 3661.365286 4390.807814 L 4153.904189 4388.81375 L 4156.102132 3874.345263 L 3667.7593 3873.747043 C 3666.760235 3873.747043 3665.76117 3873.747043 3664.562293 3873.547637 Z M 4258.206545 4388.414937 L 4730.364529 4386.420873 L 4732.362659 3874.943482 L 4260.204675 3874.544669 Z M 4834.467072 4385.822654 L 5300.231042 4384.027996 L 5301.429919 3875.741107 L 4836.665015 3875.142888 Z M 5404.333585 4383.429777 L 5862.904288 4381.63512 L 5865.102231 3876.339327 L 5405.532463 3875.741107 Z M 5967.006832 4381.036901 L 6425.577535 4379.242243 L 6427.775478 3877.136952 L 5969.204774 3876.538733 Z M 6529.680078 4378.644024 L 6977.460883 4376.849366 L 6979.459012 3877.735171 L 6531.878021 3877.136952 Z M 7081.563426 4376.450554 L 7540.933381 4374.45649 L 7540.933381 3878.33339 L 7083.561556 3877.735171 Z M 7645.235738 4374.057677 L 8089.819535 4372.063613 L 8087.621593 3878.93161 L 7645.035925 3878.532797 Z M 5110.608559 4185.818044 C 5108.61043 4193.395487 5105.613236 4200.374711 5100.218286 4205.95809 C 5084.033438 4223.107039 5053.462057 4224.502884 5000.311815 4216.327222 C 4971.938377 4211.940282 4945.363255 4231.482108 4940.967371 4259.797815 C 4936.571486 4288.312929 4955.953341 4314.833979 4984.326779 4319.22092 C 5087.829884 4335.372837 5143.977321 4311.045258 5175.547765 4277.943797 C 5197.127563 4255.410875 5209.11634 4226.895761 5214.511289 4195.588958 C 5220.505678 4161.291058 5217.908109 4123.005031 5217.908109 4091.299415 L 5217.908109 4090.900603 C 5218.107922 4089.305351 5217.908109 4087.510694 5217.908109 4085.915443 C 5212.313347 3982.622933 5142.378817 3930.976678 5075.841107 3925.792111 C 5004.907512 3920.009326 4931.576162 3964.277545 4925.381961 4064.180146 C 4920.386638 4144.540922 4980.530333 4187.612702 5054.461122 4191.401423 C 5073.043726 4192.199049 5092.225768 4190.204985 5110.608559 4185.818044 Z M 2811.361027 1715.571681 L 2817.355415 4214.931377 C 2881.49537 4188.609734 2957.024662 4183.026355 3026.759379 4203.565213 L 3036.750027 1711.982366 Z M 8546.591922 4144.540922 L 9393.998612 4134.171789 C 9422.771676 4133.772976 9445.750164 4110.043616 9445.350539 4081.329096 C 9445.150726 4052.614576 9421.572798 4029.483434 9392.799735 4029.882247 L 8545.393045 4040.251379 C 8516.619981 4040.650192 8493.641492 4064.180146 8493.841305 4093.094073 C 8494.240931 4121.808593 8517.818858 4144.740328 8546.591922 4144.540922 Z M 5111.807437 4075.945123 C 5107.211739 4053.611608 5095.222963 4038.456722 5079.637553 4032.275124 C 5066.849525 4027.289964 5052.063367 4028.286996 5042.272533 4037.45969 C 5034.280015 4044.63832 5030.283756 4056.004484 5029.284691 4070.760557 C 5028.885066 4077.939187 5034.080202 4081.528502 5039.874777 4083.721973 C 5050.864489 4087.7101 5064.052143 4088.308319 5077.039985 4086.513662 C 5089.6282 4084.918411 5103.015667 4082.326128 5111.807437 4075.945123 Z M 8539.998095 3874.943482 L 9394.398238 3863.776724 C 9423.171302 3863.377911 9446.349603 3839.847957 9445.949977 3811.133437 C 9445.550352 3782.418917 9421.972424 3759.287775 9393.199361 3759.686588 L 8538.799217 3770.65394 C 8510.026154 3771.052752 8487.047665 3794.782113 8487.247478 3823.496633 C 8487.647104 3852.211153 8511.424844 3875.142888 8539.998095 3874.943482 Z M 7644.836112 3245.218101 L 7645.035925 3774.243255 L 8087.221967 3774.841474 L 8085.024025 3243.822256 Z M 7086.159124 3247.012759 L 7083.961181 3773.645036 L 7540.933381 3774.243255 L 7540.733569 3245.616914 Z M 6534.675402 3248.807416 L 6532.47746 3773.046816 L 6979.858638 3773.445629 L 6982.056581 3247.411571 Z M 5972.002155 3250.602074 L 5969.6044 3772.249191 L 6428.175103 3772.84741 L 6430.572859 3249.206229 Z M 5406.931153 3252.396731 L 5405.732276 3771.650972 L 5865.501857 3772.249191 L 5867.699799 3251.000886 Z M 4839.06277 3254.191389 L 4837.064641 3771.052752 L 5301.629732 3771.451565 L 5302.82861 3252.795544 Z M 4262.802243 3256.185453 L 4260.804114 3770.255127 L 4732.962097 3770.853346 L 4734.960227 3254.590201 Z M 4158.6997 3256.384859 L 3673.553875 3257.98011 C 3672.155184 3257.98011 3670.956307 3257.98011 3669.557616 3257.780704 L 3665.561357 3769.656908 L 3667.959113 3769.656908 L 4156.501758 3770.255127 Z M 3787.247439 3677.132343 C 3839.398617 3734.760789 3923.519866 3744.332296 3983.663562 3719.007685 C 4018.031388 3704.650424 4044.60651 3679.126406 4057.394538 3647.021978 C 4069.982753 3615.515768 4070.382379 3576.033303 4045.605574 3531.166865 C 4040.010812 3520.997139 4033.616798 3512.023851 4026.823158 3504.047596 C 4035.614927 3490.886774 4042.208754 3475.532482 4046.205013 3457.98472 C 4062.389862 3385.999013 4033.017359 3336.546228 3991.855893 3310.822803 C 3930.713132 3272.33737 3834.80292 3287.492256 3795.239957 3371.641753 C 3783.051368 3397.76399 3794.240892 3428.67198 3820.216575 3441.035176 C 3846.39207 3453.198966 3877.363077 3442.032208 3889.551666 3415.909971 C 3899.142687 3395.570519 3921.521737 3389.588328 3936.507708 3398.960428 C 3946.098729 3405.142026 3948.296671 3418.103442 3944.500225 3435.052985 C 3940.104341 3454.395405 3921.72155 3461.175222 3903.538572 3463.368692 C 3874.965321 3466.758601 3854.584401 3492.282619 3857.781408 3520.797733 C 3860.978415 3549.312846 3886.554472 3570.051111 3915.127723 3566.860609 C 3932.311636 3565.065951 3946.498355 3567.060015 3954.490873 3581.616682 C 3960.485261 3592.384627 3963.482455 3601.158508 3960.485261 3608.735951 C 3957.887693 3615.715174 3950.694427 3619.902709 3943.101535 3623.093211 C 3919.123982 3633.06353 3885.355594 3630.271841 3864.575048 3607.1407 C 3845.393006 3585.804216 3812.42387 3584.208965 3791.043885 3603.551385 C 3769.6639 3622.694398 3768.065397 3655.795859 3787.247439 3677.132343 Z M 6712.708734 3486.499833 L 6725.296949 3476.130701 C 6725.296949 3476.130701 6724.297885 3661.977457 6724.297885 3661.977457 C 6724.297885 3690.691977 6747.476186 3714.221931 6776.24925 3714.421338 C 6805.022313 3714.421338 6828.400428 3691.290196 6828.600241 3662.575676 L 6829.998931 3365.460154 C 6830.198744 3345.120703 6818.609594 3326.775315 6800.426616 3318.001434 C 6782.043825 3309.426959 6760.464027 3312.019242 6744.878618 3324.980657 L 6646.370837 3406.139058 C 6624.391413 3424.484446 6621.194406 3457.3865 6639.377384 3479.52061 C 6657.760175 3501.654719 6690.529497 3504.845221 6712.708734 3486.499833 Z M 8538.599405 3594.378691 L 9386.006095 3584.009558 C 9414.779158 3583.610746 9437.757647 3560.080791 9437.358021 3531.366271 C 9436.958395 3502.651751 9413.380468 3479.52061 9384.607404 3479.919423 L 8537.200714 3490.288555 C 8508.627463 3490.487961 8485.449162 3514.217322 8485.848788 3542.931842 C 8486.248414 3571.646362 8509.826341 3594.777503 8538.599405 3594.378691 Z M 8532.005577 3324.781251 L 9386.40572 3313.813899 C 9415.178784 3313.415087 9438.157273 3289.685726 9437.757647 3260.971206 C 9437.358021 3232.256686 9413.780094 3209.324951 9385.00703 3209.524357 L 8530.606887 3220.691115 C 8502.033636 3221.089928 8478.855335 3244.619882 8479.254961 3273.334402 C 8479.654586 3302.048922 8503.232514 3325.180064 8532.005577 3324.781251 Z M 3674.353127 2679.103359 L 3670.556681 3153.889974 C 3671.355933 3153.889974 3672.354997 3153.889974 3673.154249 3153.889974 L 4159.099326 3152.294723 L 4161.097455 2678.305733 Z M 4265.399811 2678.305733 L 4263.401682 3151.89591 L 4735.359853 3150.500066 L 4737.357982 2677.508108 Z M 4841.460525 2677.308701 L 4839.462396 3150.101253 L 5303.028423 3148.705408 L 5304.227301 2676.710482 Z M 5408.329844 2676.511076 L 5407.330779 3148.306595 L 5868.299238 3146.910751 L 5870.297367 2675.71345 Z M 5974.399911 2675.71345 L 5972.401781 3146.511938 L 6430.972485 3145.116093 L 6432.970614 2674.915825 Z M 6537.27297 2674.716418 L 6535.075028 3144.71728 L 6982.456207 3143.321436 L 6984.454336 2674.118199 Z M 7088.556879 2673.918793 L 7086.758563 3142.922623 L 7540.733569 3141.526778 L 7540.533756 2673.320574 Z M 7644.636299 2673.121167 L 7644.836112 3141.127965 L 8084.624399 3139.732121 L 8082.626269 2672.522948 Z M 5001.111066 2832.446873 L 5080.636618 2833.045092 C 5042.871972 2913.405868 4987.723599 3030.457419 4987.723599 3030.457419 C 4975.53501 3056.380249 4986.724535 3087.487646 5012.700217 3099.651436 C 5038.6759 3112.014632 5069.646906 3100.847874 5082.035308 3074.725637 L 5209.515966 2803.931759 C 5216.909045 2787.779842 5215.90998 2769.035641 5206.318959 2753.880755 C 5196.92775 2738.925276 5180.543089 2729.752582 5162.759737 2729.553176 L 5001.910318 2728.356737 C 4973.337067 2727.957924 4949.75914 2751.089066 4949.559327 2780.002992 C 4949.159701 2808.717513 4972.338003 2832.247467 5001.111066 2832.446873 Z M 7945.354778 2722.573952 L 7805.086092 2723.77039 C 7791.099186 2723.969797 7777.711719 2729.752582 7767.920884 2739.722902 C 7758.329863 2749.892627 7752.934914 2763.452262 7753.534353 2777.410709 L 7757.130986 2902.837329 C 7757.530611 2917.593402 7764.324251 2931.551849 7775.513776 2941.123356 C 7786.903114 2950.694863 7801.689272 2954.882397 7816.275617 2952.888333 C 7847.04681 2948.700799 7870.624737 2950.096643 7887.409024 2957.275273 C 7896.200794 2960.864588 7902.794621 2965.650342 7901.795556 2972.629565 C 7900.996304 2980.406415 7894.202664 2986.986826 7885.410895 2991.573173 C 7869.026233 3000.54646 7845.448306 3001.942305 7816.475429 2994.564268 C 7788.70143 2987.585045 7760.327993 3004.534588 7753.33454 3032.451483 C 7746.141274 3060.168971 7763.125374 3088.484678 7791.099186 3095.663308 C 7922.576102 3128.764769 7996.906517 3052.192715 8005.29866 2985.590981 C 8012.491926 2926.965502 7973.928028 2851.191074 7859.635025 2846.604727 C 7859.635025 2846.604727 7859.035586 2827.461713 7859.035586 2827.461713 C 7859.035586 2827.461713 7946.353842 2826.664088 7946.353842 2826.664088 C 7975.126906 2826.464681 7998.305207 2802.934727 7997.905581 2774.020801 C 7997.705769 2745.30628 7974.127841 2722.175139 7945.354778 2722.573952 Z M 8525.41175 3063.558879 L 9372.81844 3053.189747 C 9401.391691 3052.790934 9424.569993 3029.26098 9424.170367 3000.54646 C 9423.770741 2971.632534 9400.192814 2948.700799 9371.41975 2949.099611 L 8524.01306 2959.468744 C 8495.239996 2959.66815 8472.261508 2983.397511 8472.661133 3012.112031 C 8473.060759 3040.826551 8496.638687 3063.957692 8525.41175 3063.558879 Z M 8518.817923 2793.96144 L 9373.218066 2782.994088 C 9401.99113 2782.595275 9424.969618 2758.865915 9424.569993 2730.151395 C 9424.170367 2701.436875 9400.592439 2678.305733 9371.819376 2678.704546 L 8517.419233 2689.871304 C 8488.646169 2690.270117 8465.66768 2713.800071 8466.067306 2742.514591 C 8466.466932 2771.229111 8490.044859 2794.360252 8518.817923 2793.96144 Z M 3611.41205 2189.361264 L 9382.809088 2173.00994 C 9411.582151 2173.00994 9434.960266 2149.479986 9434.760453 2120.765466 C 9434.760453 2092.050946 9411.382338 2068.720398 9382.609275 2068.919804 L 3611.012424 2085.071722 C 3582.23936 2085.271128 3559.061059 2108.601676 3559.061059 2137.316196 C 3559.260872 2166.030716 3582.638986 2189.361264 3611.41205 2189.361264 Z M 5470.072043 1719.559808 L 5469.472604 1945.686655 C 5469.472604 1974.401175 5492.650906 1997.731723 5521.423969 1997.731723 C 5550.197033 1997.931129 5573.575147 1974.600582 5573.77496 1945.886062 L 5574.174586 1718.562777 L 5630.12221 1717.964557 C 5658.895274 1717.765151 5682.073575 1694.235197 5681.673949 1665.520677 C 5681.474136 1636.60675 5657.896209 1613.675015 5629.123145 1613.874422 L 5411.327038 1615.868485 C 5382.553974 1616.067892 5359.575486 1639.597846 5359.775299 1668.511773 C 5359.975112 1697.226293 5383.553039 1720.357434 5412.326103 1719.958621 Z M 6120.862798 1890.849898 L 6169.617156 1890.849898 L 6195.992464 1959.24629 C 6206.58255 1985.966746 6236.754304 1999.326974 6263.529239 1988.957842 C 6290.304173 1978.389303 6303.491827 1948.278938 6293.101554 1921.558482 L 6188.799198 1652.359855 C 6180.80668 1632.020403 6161.025199 1618.660175 6139.045775 1619.258394 C 6117.066352 1619.657207 6097.884309 1633.815061 6090.890856 1654.553325 L 5998.976902 1926.543642 C 5989.785507 1953.862317 6004.371852 1983.374463 6031.746225 1992.547157 C 6058.920785 2001.919257 6088.493101 1987.163184 6097.684496 1960.043915 Z M 6609.805068 1716.1699 L 6607.007687 1942.09734 C 6606.608061 1971.011267 6629.58655 1994.541221 6658.359613 1994.940034 C 6687.132677 1995.338846 6710.710604 1972.207705 6711.11023 1943.493185 L 6714.107424 1716.1699 L 6770.055048 1716.369306 C 6798.628299 1716.369306 6822.006414 1693.038759 6822.206226 1664.324238 C 6822.206226 1635.609718 6798.828112 1612.27917 6770.055048 1612.079764 L 6552.258941 1611.880358 C 6523.485877 1611.880358 6500.107763 1635.011499 6500.107763 1663.925426 C 6500.107763 1692.639946 6523.485877 1715.970493 6552.059128 1715.970493 Z M 5823.940765 1858.14725 L 5897.871553 1860.34072 C 5926.644617 1861.138346 5950.62217 1838.406017 5951.421422 1809.691497 C 5952.220674 1780.976977 5929.641811 1757.04821 5900.868748 1756.051178 L 5824.140578 1753.857708 L 5823.740952 1753.857708 L 5823.740952 1719.160996 C 5823.740952 1719.160996 5916.853783 1718.562777 5916.853783 1718.562777 C 5945.626847 1718.36337 5968.805148 1694.833416 5968.605335 1666.118896 C 5968.405522 1637.404376 5944.827595 1614.273234 5916.254344 1614.472641 L 5771.190148 1615.469673 C 5742.616897 1615.669079 5719.438596 1638.999627 5719.438596 1667.514741 L 5719.838221 1942.09734 C 5719.838221 1970.81186 5743.216336 1994.142408 5771.9894 1994.142408 L 5917.453222 1994.142408 C 5946.226286 1994.142408 5969.6044 1970.81186 5969.6044 1942.09734 C 5969.6044 1913.38282 5946.226286 1890.052272 5917.453222 1890.052272 L 5823.940765 1890.052272 Z M 7170.879812 1941.100308 L 7171.079624 1787.9562 C 7171.079624 1787.9562 7214.439033 1829.033917 7214.439033 1829.033917 C 7235.019766 1848.376337 7267.389463 1847.977524 7287.370757 1827.837478 L 7324.535965 1790.149671 C 7324.535965 1790.149671 7325.535029 1937.510993 7325.535029 1937.510993 C 7325.734842 1966.225513 7349.312769 1989.356655 7378.085833 1989.157248 C 7406.858897 1988.957842 7430.037198 1965.427888 7429.837385 1936.713368 L 7427.639443 1663.726019 C 7427.43963 1642.788348 7414.651602 1623.844741 7395.269746 1615.868485 C 7375.688078 1608.091636 7353.309028 1612.677983 7338.522871 1627.633463 L 7249.006672 1718.36337 C 7249.006672 1718.36337 7154.894776 1629.228714 7154.894776 1629.228714 C 7139.708992 1615.07086 7117.529756 1611.082732 7098.547526 1619.258394 C 7079.365484 1627.633463 7066.977081 1646.377663 7066.977081 1667.115928 L 7066.777268 1941.100308 C 7066.577455 1969.814828 7089.95557 1993.145376 7118.728634 1993.145376 C 7147.501697 1993.344782 7170.879812 1970.014235 7170.879812 1941.100308 Z M 6881.350858 1714.574649 L 6880.351793 1889.454053 C 6859.970873 1896.23387 6845.184715 1915.376884 6844.984902 1938.109212 C 6844.585276 1966.823732 6867.763577 1990.553093 6896.536641 1990.752499 L 6961.875473 1991.550125 C 6990.648537 1991.749531 7014.226464 1968.61839 7014.426277 1939.90387 C 7014.825903 1918.966199 7002.437501 1900.620811 6984.454336 1892.245743 L 6985.653214 1712.979398 C 7004.635443 1704.803736 7017.623284 1685.660722 7017.023846 1663.726019 C 7016.424407 1635.011499 6992.446854 1612.27917 6963.67379 1613.076796 L 6900.732713 1614.672047 C 6871.959649 1615.469673 6849.380787 1639.597846 6850.180038 1668.312366 C 6850.579664 1689.050631 6863.367693 1706.797799 6881.350858 1714.574649 Z M 7570.70551 1852.563871 L 7643.037795 1853.361496 C 7671.810859 1853.760309 7695.388786 1830.629168 7695.788412 1801.914648 C 7695.988225 1773.200127 7673.009737 1749.670173 7644.236673 1749.271361 L 7569.706445 1748.473735 L 7569.506632 1712.979398 C 7569.506632 1712.979398 7659.022831 1711.384146 7659.022831 1711.384146 C 7687.795894 1710.985334 7710.774383 1687.255973 7710.374757 1658.541453 C 7709.975131 1629.826933 7686.197391 1606.895198 7657.424327 1607.294011 L 7515.956764 1609.487481 C 7487.383513 1610.0857 7464.604837 1633.416248 7464.80465 1662.130768 L 7467.402219 1937.11218 C 7467.602032 1950.871221 7473.196794 1964.231449 7482.987628 1973.802956 C 7492.978275 1983.573869 7506.365742 1988.758435 7520.152835 1988.758435 L 7664.817406 1986.963778 C 7693.59047 1986.564965 7716.568958 1963.035011 7716.169332 1934.320491 C 7715.969519 1905.605971 7692.191779 1882.474829 7663.618528 1882.873642 L 7571.105136 1883.870674 Z M 7570.70551 1852.563871 " stroke="#000000" stroke-width="1" stroke-opacity="1" stroke-miterlimit="2"/></g></svg>